# xmcd CD database file
#
# Track frame offsets:
#	183
#	24010
#	35328
#	61463
#	82608
#	102958
#	126153
#	138918
#	165060
#	186395
#	198453
#	223685
#	238180
#	256935
#
# Disc length: 3591 seconds
#
# Revision: 0
# Processed by: cddbd v1.5.1PL0 Copyright (c) Steve Scherf et al.
# Submitted via: cdripper 1,0,33,711
#
DISCID=b20e050e
DTITLE=Debussy By The Sea - Gentle Persuasion
DYEAR=1900
DGENRE=New Age
TTITLE0=Reverie
TTITLE1=Beau Soir
TTITLE2=Menuet
TTITLE3=Arabesque #1
TTITLE4=Arabesque #2
TTITLE5=Clair De Lune
TTITLE6=Le Petit Berger
TTITLE7=La Plus Que Lente
TTITLE8=En Bateau
TTITLE9=Doctor Gradus Ad Parnassum
TTITLE10=Prelude
TTITLE11=La Fille Aux Cheveux De Lin
TTITLE12=Bruyeres
TTITLE13=Reverie (Reprise)
EXTD=
EXTT0=
EXTT1=
EXTT2=
EXTT3=
EXTT4=
EXTT5=
EXTT6=
EXTT7=
EXTT8=
EXTT9=
EXTT10=
EXTT11=
EXTT12=
EXTT13=
PLAYORDER=
